<mxfile host="Electron" agent="Mozilla/5.0 (Windows NT 10.0; Win64; x64) AppleWebKit/537.36 (KHTML, like Gecko) draw.io/24.7.17 Chrome/128.0.6613.36 Electron/32.0.1 Safari/537.36" version="24.7.17">
  <diagram name="Page-1" id="-H_mtQnk-PTXWXPvYvuk">
    <mxGraphModel dx="4392" dy="3280" grid="1" gridSize="10" guides="1" tooltips="1" connect="1" arrows="1" fold="1" page="1" pageScale="1" pageWidth="6000" pageHeight="6000" math="0" shadow="0">
      <root>
        <mxCell id="0" />
        <mxCell id="1" parent="0" />
        <mxCell id="eYM0LTBjd1gjEZdHAvqP-11" value="" style="group" parent="1" vertex="1" connectable="0">
          <mxGeometry x="40" y="10" width="370" height="190" as="geometry" />
        </mxCell>
        <mxCell id="eYM0LTBjd1gjEZdHAvqP-9" value="" style="rounded=0;whiteSpace=wrap;html=1;" parent="eYM0LTBjd1gjEZdHAvqP-11" vertex="1">
          <mxGeometry width="370" height="190" as="geometry" />
        </mxCell>
        <mxCell id="eYM0LTBjd1gjEZdHAvqP-5" value="" style="group" parent="eYM0LTBjd1gjEZdHAvqP-11" vertex="1" connectable="0">
          <mxGeometry x="55" y="55" width="260" height="80" as="geometry" />
        </mxCell>
        <mxCell id="eYM0LTBjd1gjEZdHAvqP-1" value="MongoDB" style="shape=cylinder3;whiteSpace=wrap;html=1;boundedLbl=1;backgroundOutline=1;size=15;" parent="eYM0LTBjd1gjEZdHAvqP-5" vertex="1">
          <mxGeometry x="200" width="60" height="80" as="geometry" />
        </mxCell>
        <mxCell id="eYM0LTBjd1gjEZdHAvqP-2" value="pymongo-api" style="rounded=1;whiteSpace=wrap;html=1;" parent="eYM0LTBjd1gjEZdHAvqP-5" vertex="1">
          <mxGeometry y="10" width="120" height="60" as="geometry" />
        </mxCell>
        <mxCell id="eYM0LTBjd1gjEZdHAvqP-3" style="edgeStyle=orthogonalEdgeStyle;rounded=0;orthogonalLoop=1;jettySize=auto;html=1;exitX=1;exitY=0.5;exitDx=0;exitDy=0;entryX=0;entryY=0.5;entryDx=0;entryDy=0;entryPerimeter=0;" parent="eYM0LTBjd1gjEZdHAvqP-5" source="eYM0LTBjd1gjEZdHAvqP-2" target="eYM0LTBjd1gjEZdHAvqP-1" edge="1">
          <mxGeometry relative="1" as="geometry" />
        </mxCell>
        <mxCell id="eYM0LTBjd1gjEZdHAvqP-10" value="&lt;font style=&quot;font-size: 16px;&quot;&gt;&lt;b&gt;1) Initial state&lt;/b&gt;&lt;/font&gt;&lt;div style=&quot;font-size: 16px;&quot;&gt;&lt;br&gt;&lt;/div&gt;" style="text;html=1;align=center;verticalAlign=middle;whiteSpace=wrap;rounded=0;" parent="eYM0LTBjd1gjEZdHAvqP-11" vertex="1">
          <mxGeometry y="14" width="110" height="30" as="geometry" />
        </mxCell>
        <mxCell id="eYM0LTBjd1gjEZdHAvqP-89" value="" style="group" parent="1" vertex="1" connectable="0">
          <mxGeometry x="40" y="240" width="540" height="400" as="geometry" />
        </mxCell>
        <mxCell id="eYM0LTBjd1gjEZdHAvqP-76" value="" style="group" parent="eYM0LTBjd1gjEZdHAvqP-89" vertex="1" connectable="0">
          <mxGeometry width="540" height="400" as="geometry" />
        </mxCell>
        <mxCell id="eYM0LTBjd1gjEZdHAvqP-63" value="" style="rounded=0;whiteSpace=wrap;html=1;container=0;" parent="eYM0LTBjd1gjEZdHAvqP-76" vertex="1">
          <mxGeometry width="540" height="400" as="geometry" />
        </mxCell>
        <mxCell id="eYM0LTBjd1gjEZdHAvqP-71" value="&lt;br&gt;&lt;font style=&quot;forced-color-adjust: none; font-size: 16px;&quot;&gt;&lt;b style=&quot;forced-color-adjust: none;&quot;&gt;2) Sharding state&lt;/b&gt;&lt;/font&gt;" style="text;html=1;align=center;verticalAlign=middle;whiteSpace=wrap;rounded=0;container=0;" parent="eYM0LTBjd1gjEZdHAvqP-76" vertex="1">
          <mxGeometry x="5" y="10.00090909090909" width="150" height="27.272727272727273" as="geometry" />
        </mxCell>
        <mxCell id="eYM0LTBjd1gjEZdHAvqP-44" value="pymongo-api" style="rounded=1;whiteSpace=wrap;html=1;container=0;" parent="eYM0LTBjd1gjEZdHAvqP-76" vertex="1">
          <mxGeometry x="20" y="172.72545454545445" width="120" height="54.54545454545455" as="geometry" />
        </mxCell>
        <mxCell id="eYM0LTBjd1gjEZdHAvqP-105" value="" style="group" parent="eYM0LTBjd1gjEZdHAvqP-89" vertex="1" connectable="0">
          <mxGeometry x="190" y="40" width="330" height="320" as="geometry" />
        </mxCell>
        <mxCell id="eYM0LTBjd1gjEZdHAvqP-62" style="edgeStyle=orthogonalEdgeStyle;rounded=0;orthogonalLoop=1;jettySize=auto;html=1;entryX=0;entryY=0;entryDx=0;entryDy=52.5;entryPerimeter=0;exitX=1.001;exitY=0.445;exitDx=0;exitDy=0;exitPerimeter=0;" parent="eYM0LTBjd1gjEZdHAvqP-105" source="eYM0LTBjd1gjEZdHAvqP-72" target="eYM0LTBjd1gjEZdHAvqP-45" edge="1">
          <mxGeometry relative="1" as="geometry" />
        </mxCell>
        <mxCell id="eYM0LTBjd1gjEZdHAvqP-46" style="edgeStyle=orthogonalEdgeStyle;rounded=0;orthogonalLoop=1;jettySize=auto;html=1;entryX=0;entryY=0.5;entryDx=0;entryDy=0;entryPerimeter=0;exitX=0.997;exitY=0.434;exitDx=0;exitDy=0;exitPerimeter=0;" parent="eYM0LTBjd1gjEZdHAvqP-105" source="eYM0LTBjd1gjEZdHAvqP-72" target="eYM0LTBjd1gjEZdHAvqP-43" edge="1">
          <mxGeometry relative="1" as="geometry">
            <mxPoint x="130" y="190" as="sourcePoint" />
            <mxPoint x="30" y="220" as="targetPoint" />
          </mxGeometry>
        </mxCell>
        <mxCell id="eYM0LTBjd1gjEZdHAvqP-41" value="" style="rounded=1;whiteSpace=wrap;html=1;fillColor=#DBCEE0;container=0;" parent="eYM0LTBjd1gjEZdHAvqP-105" vertex="1">
          <mxGeometry width="330" height="320" as="geometry" />
        </mxCell>
        <mxCell id="eYM0LTBjd1gjEZdHAvqP-42" value="&lt;b&gt;DB Cluster&lt;/b&gt;" style="text;html=1;align=center;verticalAlign=middle;whiteSpace=wrap;rounded=0;container=0;" parent="eYM0LTBjd1gjEZdHAvqP-105" vertex="1">
          <mxGeometry x="9.997241379310339" y="10.004705882352937" width="121.37931034482757" height="25.147058823529413" as="geometry" />
        </mxCell>
        <mxCell id="eYM0LTBjd1gjEZdHAvqP-45" value="MongoDB&lt;div&gt;Shard 2&lt;/div&gt;&lt;div&gt;(shard-2)&lt;/div&gt;" style="shape=cylinder3;whiteSpace=wrap;html=1;boundedLbl=1;backgroundOutline=1;size=15;container=0;" parent="eYM0LTBjd1gjEZdHAvqP-105" vertex="1">
          <mxGeometry x="250" y="170" width="70" height="110" as="geometry" />
        </mxCell>
        <mxCell id="eYM0LTBjd1gjEZdHAvqP-43" value="MongoDB&lt;br&gt;Shard 1&lt;br&gt;(shard-1)" style="shape=cylinder3;whiteSpace=wrap;html=1;boundedLbl=1;backgroundOutline=1;size=15;container=0;" parent="eYM0LTBjd1gjEZdHAvqP-105" vertex="1">
          <mxGeometry x="250" y="35.14999999999998" width="70" height="100" as="geometry" />
        </mxCell>
        <mxCell id="eYM0LTBjd1gjEZdHAvqP-72" value="&lt;span style=&quot;color: rgba(0, 0, 0, 0.85); font-family: Menlo, &amp;quot;Ubuntu Mono&amp;quot;, consolas, source-code-pro, monospace; font-size: 14px; text-align: start; white-space: pre; background-color: rgb(245, 245, 245);&quot;&gt;Сервер конфигурации&lt;/span&gt;&lt;div&gt;&lt;span style=&quot;color: rgba(0, 0, 0, 0.85); font-family: Menlo, &amp;quot;Ubuntu Mono&amp;quot;, consolas, source-code-pro, monospace; font-size: 14px; text-align: start; white-space: pre; background-color: rgb(245, 245, 245);&quot;&gt;(configSrv)&lt;/span&gt;&lt;/div&gt;" style="rounded=1;whiteSpace=wrap;html=1;container=0;" parent="eYM0LTBjd1gjEZdHAvqP-105" vertex="1">
          <mxGeometry x="10" y="120" width="160" height="80" as="geometry" />
        </mxCell>
        <mxCell id="eYM0LTBjd1gjEZdHAvqP-73" style="edgeStyle=orthogonalEdgeStyle;rounded=0;orthogonalLoop=1;jettySize=auto;html=1;" parent="eYM0LTBjd1gjEZdHAvqP-105" source="eYM0LTBjd1gjEZdHAvqP-44" target="eYM0LTBjd1gjEZdHAvqP-72" edge="1">
          <mxGeometry relative="1" as="geometry" />
        </mxCell>
        <mxCell id="eYM0LTBjd1gjEZdHAvqP-103" style="edgeStyle=orthogonalEdgeStyle;rounded=0;orthogonalLoop=1;jettySize=auto;html=1;entryX=0;entryY=0;entryDx=0;entryDy=67.5;entryPerimeter=0;" parent="eYM0LTBjd1gjEZdHAvqP-105" source="eYM0LTBjd1gjEZdHAvqP-72" target="eYM0LTBjd1gjEZdHAvqP-43" edge="1">
          <mxGeometry relative="1" as="geometry" />
        </mxCell>
        <mxCell id="eYM0LTBjd1gjEZdHAvqP-104" style="edgeStyle=orthogonalEdgeStyle;rounded=0;orthogonalLoop=1;jettySize=auto;html=1;entryX=0;entryY=0.5;entryDx=0;entryDy=0;entryPerimeter=0;" parent="eYM0LTBjd1gjEZdHAvqP-105" source="eYM0LTBjd1gjEZdHAvqP-72" target="eYM0LTBjd1gjEZdHAvqP-45" edge="1">
          <mxGeometry relative="1" as="geometry" />
        </mxCell>
        <mxCell id="eYM0LTBjd1gjEZdHAvqP-123" value="" style="group" parent="1" vertex="1" connectable="0">
          <mxGeometry x="40" y="690" width="900" height="720" as="geometry" />
        </mxCell>
        <mxCell id="eYM0LTBjd1gjEZdHAvqP-94" value="" style="rounded=0;whiteSpace=wrap;html=1;container=0;" parent="eYM0LTBjd1gjEZdHAvqP-123" vertex="1">
          <mxGeometry width="900" height="720" as="geometry" />
        </mxCell>
        <mxCell id="eYM0LTBjd1gjEZdHAvqP-91" style="edgeStyle=orthogonalEdgeStyle;rounded=0;orthogonalLoop=1;jettySize=auto;html=1;entryX=0;entryY=0;entryDx=0;entryDy=52.5;entryPerimeter=0;exitX=1.001;exitY=0.445;exitDx=0;exitDy=0;exitPerimeter=0;" parent="eYM0LTBjd1gjEZdHAvqP-123" source="eYM0LTBjd1gjEZdHAvqP-101" target="eYM0LTBjd1gjEZdHAvqP-99" edge="1">
          <mxGeometry relative="1" as="geometry" />
        </mxCell>
        <mxCell id="eYM0LTBjd1gjEZdHAvqP-92" style="edgeStyle=orthogonalEdgeStyle;rounded=0;orthogonalLoop=1;jettySize=auto;html=1;entryX=0;entryY=0.5;entryDx=0;entryDy=0;entryPerimeter=0;exitX=0.997;exitY=0.434;exitDx=0;exitDy=0;exitPerimeter=0;" parent="eYM0LTBjd1gjEZdHAvqP-123" source="eYM0LTBjd1gjEZdHAvqP-101" target="eYM0LTBjd1gjEZdHAvqP-100" edge="1">
          <mxGeometry relative="1" as="geometry">
            <mxPoint x="320" y="410" as="sourcePoint" />
            <mxPoint x="220" y="440" as="targetPoint" />
          </mxGeometry>
        </mxCell>
        <mxCell id="eYM0LTBjd1gjEZdHAvqP-97" value="" style="rounded=1;whiteSpace=wrap;html=1;fillColor=#DBCEE0;container=0;" parent="eYM0LTBjd1gjEZdHAvqP-123" vertex="1">
          <mxGeometry x="160" y="30" width="670" height="670" as="geometry" />
        </mxCell>
        <mxCell id="eYM0LTBjd1gjEZdHAvqP-98" value="&lt;b&gt;DB Cluster&lt;/b&gt;" style="text;html=1;align=center;verticalAlign=middle;whiteSpace=wrap;rounded=0;container=0;" parent="eYM0LTBjd1gjEZdHAvqP-123" vertex="1">
          <mxGeometry x="199.99724137931034" y="72.4247058823529" width="121.37931034482757" height="25.147058823529413" as="geometry" />
        </mxCell>
        <mxCell id="eYM0LTBjd1gjEZdHAvqP-102" style="edgeStyle=orthogonalEdgeStyle;rounded=0;orthogonalLoop=1;jettySize=auto;html=1;" parent="eYM0LTBjd1gjEZdHAvqP-123" source="eYM0LTBjd1gjEZdHAvqP-96" target="eYM0LTBjd1gjEZdHAvqP-101" edge="1">
          <mxGeometry relative="1" as="geometry" />
        </mxCell>
        <mxCell id="eYM0LTBjd1gjEZdHAvqP-106" style="edgeStyle=orthogonalEdgeStyle;rounded=0;orthogonalLoop=1;jettySize=auto;html=1;entryX=0;entryY=0;entryDx=0;entryDy=67.5;entryPerimeter=0;" parent="eYM0LTBjd1gjEZdHAvqP-123" source="eYM0LTBjd1gjEZdHAvqP-101" target="eYM0LTBjd1gjEZdHAvqP-100" edge="1">
          <mxGeometry relative="1" as="geometry" />
        </mxCell>
        <mxCell id="eYM0LTBjd1gjEZdHAvqP-107" style="edgeStyle=orthogonalEdgeStyle;rounded=0;orthogonalLoop=1;jettySize=auto;html=1;entryX=-0.001;entryY=0.574;entryDx=0;entryDy=0;entryPerimeter=0;" parent="eYM0LTBjd1gjEZdHAvqP-123" source="eYM0LTBjd1gjEZdHAvqP-101" target="eYM0LTBjd1gjEZdHAvqP-99" edge="1">
          <mxGeometry relative="1" as="geometry" />
        </mxCell>
        <mxCell id="eYM0LTBjd1gjEZdHAvqP-95" value="&lt;font style=&quot;forced-color-adjust: none; font-size: 16px;&quot;&gt;&lt;b style=&quot;forced-color-adjust: none;&quot;&gt;3) Replicated state&lt;/b&gt;&lt;/font&gt;" style="text;html=1;align=center;verticalAlign=middle;whiteSpace=wrap;rounded=0;container=0;" parent="eYM0LTBjd1gjEZdHAvqP-123" vertex="1">
          <mxGeometry x="5" y="20.00090909090909" width="150" height="27.272727272727273" as="geometry" />
        </mxCell>
        <mxCell id="eYM0LTBjd1gjEZdHAvqP-96" value="pymongo-api" style="rounded=1;whiteSpace=wrap;html=1;container=0;" parent="eYM0LTBjd1gjEZdHAvqP-123" vertex="1">
          <mxGeometry x="20" y="339.99545454545444" width="120" height="54.54545454545455" as="geometry" />
        </mxCell>
        <mxCell id="eYM0LTBjd1gjEZdHAvqP-101" value="&lt;span style=&quot;color: rgba(0, 0, 0, 0.85); font-family: Menlo, &amp;quot;Ubuntu Mono&amp;quot;, consolas, source-code-pro, monospace; font-size: 14px; text-align: start; white-space: pre; background-color: rgb(245, 245, 245);&quot;&gt;Сервер конфигурации&lt;/span&gt;&lt;div&gt;&lt;span style=&quot;color: rgba(0, 0, 0, 0.85); font-family: Menlo, &amp;quot;Ubuntu Mono&amp;quot;, consolas, source-code-pro, monospace; font-size: 14px; text-align: start; white-space: pre; background-color: rgb(245, 245, 245);&quot;&gt;(configSrv)&lt;/span&gt;&lt;/div&gt;" style="rounded=1;whiteSpace=wrap;html=1;container=0;" parent="eYM0LTBjd1gjEZdHAvqP-123" vertex="1">
          <mxGeometry x="200" y="327.27" width="160" height="80" as="geometry" />
        </mxCell>
        <mxCell id="eYM0LTBjd1gjEZdHAvqP-100" value="MongoDB&lt;br&gt;Shard 1&lt;br&gt;(shard-1)" style="shape=cylinder3;whiteSpace=wrap;html=1;boundedLbl=1;backgroundOutline=1;size=15;container=0;" parent="eYM0LTBjd1gjEZdHAvqP-123" vertex="1">
          <mxGeometry x="440" y="142" width="70" height="100" as="geometry" />
        </mxCell>
        <mxCell id="eYM0LTBjd1gjEZdHAvqP-99" value="MongoDB&lt;div&gt;Shard 2&lt;/div&gt;&lt;div&gt;(shard-2)&lt;/div&gt;" style="shape=cylinder3;whiteSpace=wrap;html=1;boundedLbl=1;backgroundOutline=1;size=15;container=0;" parent="eYM0LTBjd1gjEZdHAvqP-123" vertex="1">
          <mxGeometry x="440" y="485" width="70" height="110" as="geometry" />
        </mxCell>
        <mxCell id="eYM0LTBjd1gjEZdHAvqP-111" value="Replica 1&lt;div&gt;(shard-1-1)&lt;/div&gt;" style="shape=cylinder3;whiteSpace=wrap;html=1;boundedLbl=1;backgroundOutline=1;size=15;" parent="eYM0LTBjd1gjEZdHAvqP-123" vertex="1">
          <mxGeometry x="630" y="40" width="70" height="90" as="geometry" />
        </mxCell>
        <mxCell id="eYM0LTBjd1gjEZdHAvqP-112" value="Replica 2&lt;div&gt;(shard-1-2)&lt;/div&gt;" style="shape=cylinder3;whiteSpace=wrap;html=1;boundedLbl=1;backgroundOutline=1;size=15;" parent="eYM0LTBjd1gjEZdHAvqP-123" vertex="1">
          <mxGeometry x="630" y="140" width="70" height="90" as="geometry" />
        </mxCell>
        <mxCell id="eYM0LTBjd1gjEZdHAvqP-113" value="Replica 3&lt;div&gt;(shard-1-3)&lt;/div&gt;" style="shape=cylinder3;whiteSpace=wrap;html=1;boundedLbl=1;backgroundOutline=1;size=15;" parent="eYM0LTBjd1gjEZdHAvqP-123" vertex="1">
          <mxGeometry x="630" y="240" width="70" height="90" as="geometry" />
        </mxCell>
        <mxCell id="eYM0LTBjd1gjEZdHAvqP-114" value="Replica 1&lt;br&gt;(shard-2-1)" style="shape=cylinder3;whiteSpace=wrap;html=1;boundedLbl=1;backgroundOutline=1;size=15;" parent="eYM0LTBjd1gjEZdHAvqP-123" vertex="1">
          <mxGeometry x="630" y="390" width="70" height="90" as="geometry" />
        </mxCell>
        <mxCell id="eYM0LTBjd1gjEZdHAvqP-115" value="Replica 2&lt;div&gt;(shard-2-2)&lt;/div&gt;" style="shape=cylinder3;whiteSpace=wrap;html=1;boundedLbl=1;backgroundOutline=1;size=15;" parent="eYM0LTBjd1gjEZdHAvqP-123" vertex="1">
          <mxGeometry x="630" y="490" width="70" height="90" as="geometry" />
        </mxCell>
        <mxCell id="eYM0LTBjd1gjEZdHAvqP-116" value="Replica 3&lt;div&gt;(shard-2-3)&lt;/div&gt;" style="shape=cylinder3;whiteSpace=wrap;html=1;boundedLbl=1;backgroundOutline=1;size=15;" parent="eYM0LTBjd1gjEZdHAvqP-123" vertex="1">
          <mxGeometry x="630" y="590" width="70" height="90" as="geometry" />
        </mxCell>
        <mxCell id="eYM0LTBjd1gjEZdHAvqP-117" style="edgeStyle=orthogonalEdgeStyle;rounded=0;orthogonalLoop=1;jettySize=auto;html=1;entryX=0;entryY=0.5;entryDx=0;entryDy=0;entryPerimeter=0;dashed=1;" parent="eYM0LTBjd1gjEZdHAvqP-123" source="eYM0LTBjd1gjEZdHAvqP-100" target="eYM0LTBjd1gjEZdHAvqP-111" edge="1">
          <mxGeometry relative="1" as="geometry" />
        </mxCell>
        <mxCell id="eYM0LTBjd1gjEZdHAvqP-118" style="edgeStyle=orthogonalEdgeStyle;rounded=0;orthogonalLoop=1;jettySize=auto;html=1;entryX=0.044;entryY=0.589;entryDx=0;entryDy=0;entryPerimeter=0;dashed=1;" parent="eYM0LTBjd1gjEZdHAvqP-123" source="eYM0LTBjd1gjEZdHAvqP-100" target="eYM0LTBjd1gjEZdHAvqP-112" edge="1">
          <mxGeometry relative="1" as="geometry" />
        </mxCell>
        <mxCell id="eYM0LTBjd1gjEZdHAvqP-119" style="edgeStyle=orthogonalEdgeStyle;rounded=0;orthogonalLoop=1;jettySize=auto;html=1;entryX=-0.004;entryY=0.593;entryDx=0;entryDy=0;entryPerimeter=0;dashed=1;" parent="eYM0LTBjd1gjEZdHAvqP-123" source="eYM0LTBjd1gjEZdHAvqP-100" target="eYM0LTBjd1gjEZdHAvqP-113" edge="1">
          <mxGeometry relative="1" as="geometry" />
        </mxCell>
        <mxCell id="eYM0LTBjd1gjEZdHAvqP-120" style="edgeStyle=orthogonalEdgeStyle;rounded=0;orthogonalLoop=1;jettySize=auto;html=1;entryX=-0.013;entryY=0.584;entryDx=0;entryDy=0;entryPerimeter=0;dashed=1;" parent="eYM0LTBjd1gjEZdHAvqP-123" source="eYM0LTBjd1gjEZdHAvqP-99" target="eYM0LTBjd1gjEZdHAvqP-114" edge="1">
          <mxGeometry relative="1" as="geometry" />
        </mxCell>
        <mxCell id="eYM0LTBjd1gjEZdHAvqP-121" style="edgeStyle=orthogonalEdgeStyle;rounded=0;orthogonalLoop=1;jettySize=auto;html=1;entryX=0.033;entryY=0.559;entryDx=0;entryDy=0;entryPerimeter=0;dashed=1;" parent="eYM0LTBjd1gjEZdHAvqP-123" source="eYM0LTBjd1gjEZdHAvqP-99" target="eYM0LTBjd1gjEZdHAvqP-115" edge="1">
          <mxGeometry relative="1" as="geometry" />
        </mxCell>
        <mxCell id="eYM0LTBjd1gjEZdHAvqP-122" style="edgeStyle=orthogonalEdgeStyle;rounded=0;orthogonalLoop=1;jettySize=auto;html=1;entryX=-0.002;entryY=0.593;entryDx=0;entryDy=0;entryPerimeter=0;dashed=1;" parent="eYM0LTBjd1gjEZdHAvqP-123" source="eYM0LTBjd1gjEZdHAvqP-99" target="eYM0LTBjd1gjEZdHAvqP-116" edge="1">
          <mxGeometry relative="1" as="geometry" />
        </mxCell>
        <mxCell id="eYM0LTBjd1gjEZdHAvqP-156" value="" style="group" parent="1" vertex="1" connectable="0">
          <mxGeometry x="40" y="1480" width="1210" height="720" as="geometry" />
        </mxCell>
        <mxCell id="eYM0LTBjd1gjEZdHAvqP-125" value="" style="rounded=0;whiteSpace=wrap;html=1;container=0;" parent="eYM0LTBjd1gjEZdHAvqP-156" vertex="1">
          <mxGeometry width="1210" height="720" as="geometry" />
        </mxCell>
        <mxCell id="eYM0LTBjd1gjEZdHAvqP-126" style="edgeStyle=orthogonalEdgeStyle;rounded=0;orthogonalLoop=1;jettySize=auto;html=1;entryX=0;entryY=0;entryDx=0;entryDy=52.5;entryPerimeter=0;exitX=1.001;exitY=0.445;exitDx=0;exitDy=0;exitPerimeter=0;" parent="eYM0LTBjd1gjEZdHAvqP-156" source="eYM0LTBjd1gjEZdHAvqP-135" target="eYM0LTBjd1gjEZdHAvqP-137" edge="1">
          <mxGeometry relative="1" as="geometry" />
        </mxCell>
        <mxCell id="eYM0LTBjd1gjEZdHAvqP-127" style="edgeStyle=orthogonalEdgeStyle;rounded=0;orthogonalLoop=1;jettySize=auto;html=1;entryX=0;entryY=0.5;entryDx=0;entryDy=0;entryPerimeter=0;exitX=0.997;exitY=0.434;exitDx=0;exitDy=0;exitPerimeter=0;" parent="eYM0LTBjd1gjEZdHAvqP-156" source="eYM0LTBjd1gjEZdHAvqP-135" target="eYM0LTBjd1gjEZdHAvqP-136" edge="1">
          <mxGeometry relative="1" as="geometry">
            <mxPoint x="700" y="410" as="sourcePoint" />
            <mxPoint x="600" y="440" as="targetPoint" />
          </mxGeometry>
        </mxCell>
        <mxCell id="eYM0LTBjd1gjEZdHAvqP-128" value="" style="rounded=1;whiteSpace=wrap;html=1;fillColor=#DBCEE0;container=0;" parent="eYM0LTBjd1gjEZdHAvqP-156" vertex="1">
          <mxGeometry x="260" y="30" width="900" height="670" as="geometry" />
        </mxCell>
        <mxCell id="eYM0LTBjd1gjEZdHAvqP-129" value="&lt;b&gt;DB Cluster&lt;/b&gt;" style="text;html=1;align=center;verticalAlign=middle;whiteSpace=wrap;rounded=0;container=0;" parent="eYM0LTBjd1gjEZdHAvqP-156" vertex="1">
          <mxGeometry x="319.99724137931037" y="72.42470588235301" width="121.37931034482757" height="25.147058823529413" as="geometry" />
        </mxCell>
        <mxCell id="eYM0LTBjd1gjEZdHAvqP-131" style="edgeStyle=orthogonalEdgeStyle;rounded=0;orthogonalLoop=1;jettySize=auto;html=1;entryX=0;entryY=0;entryDx=0;entryDy=67.5;entryPerimeter=0;exitX=1;exitY=0.5;exitDx=0;exitDy=0;" parent="eYM0LTBjd1gjEZdHAvqP-156" source="eYM0LTBjd1gjEZdHAvqP-150" target="eYM0LTBjd1gjEZdHAvqP-136" edge="1">
          <mxGeometry relative="1" as="geometry" />
        </mxCell>
        <mxCell id="eYM0LTBjd1gjEZdHAvqP-132" style="edgeStyle=orthogonalEdgeStyle;rounded=0;orthogonalLoop=1;jettySize=auto;html=1;entryX=-0.001;entryY=0.574;entryDx=0;entryDy=0;entryPerimeter=0;exitX=1;exitY=0.5;exitDx=0;exitDy=0;" parent="eYM0LTBjd1gjEZdHAvqP-156" source="eYM0LTBjd1gjEZdHAvqP-150" target="eYM0LTBjd1gjEZdHAvqP-137" edge="1">
          <mxGeometry relative="1" as="geometry" />
        </mxCell>
        <mxCell id="eYM0LTBjd1gjEZdHAvqP-133" value="&lt;font style=&quot;forced-color-adjust: none; font-size: 16px;&quot;&gt;&lt;b style=&quot;forced-color-adjust: none;&quot;&gt;4) Cashed state&lt;/b&gt;&lt;/font&gt;" style="text;html=1;align=center;verticalAlign=middle;whiteSpace=wrap;rounded=0;container=0;" parent="eYM0LTBjd1gjEZdHAvqP-156" vertex="1">
          <mxGeometry x="20" y="20.00090909090909" width="150" height="27.272727272727273" as="geometry" />
        </mxCell>
        <mxCell id="eYM0LTBjd1gjEZdHAvqP-152" style="edgeStyle=orthogonalEdgeStyle;rounded=0;orthogonalLoop=1;jettySize=auto;html=1;entryX=0;entryY=0.5;entryDx=0;entryDy=0;" parent="eYM0LTBjd1gjEZdHAvqP-156" source="eYM0LTBjd1gjEZdHAvqP-134" target="eYM0LTBjd1gjEZdHAvqP-135" edge="1">
          <mxGeometry relative="1" as="geometry" />
        </mxCell>
        <mxCell id="eYM0LTBjd1gjEZdHAvqP-134" value="pymongo-api" style="rounded=1;whiteSpace=wrap;html=1;container=0;" parent="eYM0LTBjd1gjEZdHAvqP-156" vertex="1">
          <mxGeometry x="50" y="357.72545454545434" width="120" height="54.54545454545455" as="geometry" />
        </mxCell>
        <mxCell id="eYM0LTBjd1gjEZdHAvqP-154" style="edgeStyle=orthogonalEdgeStyle;rounded=0;orthogonalLoop=1;jettySize=auto;html=1;entryX=0;entryY=0.5;entryDx=0;entryDy=0;" parent="eYM0LTBjd1gjEZdHAvqP-156" source="eYM0LTBjd1gjEZdHAvqP-135" target="eYM0LTBjd1gjEZdHAvqP-150" edge="1">
          <mxGeometry relative="1" as="geometry" />
        </mxCell>
        <mxCell id="eYM0LTBjd1gjEZdHAvqP-135" value="&lt;span style=&quot;color: rgba(0, 0, 0, 0.85); font-family: Menlo, &amp;quot;Ubuntu Mono&amp;quot;, consolas, source-code-pro, monospace; font-size: 14px; text-align: start; white-space: pre; background-color: rgb(245, 245, 245);&quot;&gt;Сервер конфигурации&lt;/span&gt;&lt;div&gt;&lt;span style=&quot;color: rgba(0, 0, 0, 0.85); font-family: Menlo, &amp;quot;Ubuntu Mono&amp;quot;, consolas, source-code-pro, monospace; font-size: 14px; text-align: start; white-space: pre; background-color: rgb(245, 245, 245);&quot;&gt;(configSrv)&lt;/span&gt;&lt;/div&gt;" style="rounded=1;whiteSpace=wrap;html=1;container=0;" parent="eYM0LTBjd1gjEZdHAvqP-156" vertex="1">
          <mxGeometry x="320" y="345" width="160" height="80" as="geometry" />
        </mxCell>
        <mxCell id="eYM0LTBjd1gjEZdHAvqP-136" value="MongoDB&lt;br&gt;Shard 1&lt;br&gt;(shard-1)" style="shape=cylinder3;whiteSpace=wrap;html=1;boundedLbl=1;backgroundOutline=1;size=15;container=0;" parent="eYM0LTBjd1gjEZdHAvqP-156" vertex="1">
          <mxGeometry x="820" y="142" width="70" height="100" as="geometry" />
        </mxCell>
        <mxCell id="eYM0LTBjd1gjEZdHAvqP-137" value="MongoDB&lt;div&gt;Shard 2&lt;/div&gt;&lt;div&gt;(shard-2)&lt;/div&gt;" style="shape=cylinder3;whiteSpace=wrap;html=1;boundedLbl=1;backgroundOutline=1;size=15;container=0;" parent="eYM0LTBjd1gjEZdHAvqP-156" vertex="1">
          <mxGeometry x="820" y="485" width="70" height="110" as="geometry" />
        </mxCell>
        <mxCell id="eYM0LTBjd1gjEZdHAvqP-138" value="Replica 1&lt;div&gt;(shard-1-1)&lt;/div&gt;" style="shape=cylinder3;whiteSpace=wrap;html=1;boundedLbl=1;backgroundOutline=1;size=15;container=0;" parent="eYM0LTBjd1gjEZdHAvqP-156" vertex="1">
          <mxGeometry x="1010" y="40" width="70" height="90" as="geometry" />
        </mxCell>
        <mxCell id="eYM0LTBjd1gjEZdHAvqP-139" value="Replica 2&lt;div&gt;(shard-1-2)&lt;/div&gt;" style="shape=cylinder3;whiteSpace=wrap;html=1;boundedLbl=1;backgroundOutline=1;size=15;container=0;" parent="eYM0LTBjd1gjEZdHAvqP-156" vertex="1">
          <mxGeometry x="1010" y="140" width="70" height="90" as="geometry" />
        </mxCell>
        <mxCell id="eYM0LTBjd1gjEZdHAvqP-140" value="Replica 3&lt;div&gt;(shard-1-3)&lt;/div&gt;" style="shape=cylinder3;whiteSpace=wrap;html=1;boundedLbl=1;backgroundOutline=1;size=15;container=0;" parent="eYM0LTBjd1gjEZdHAvqP-156" vertex="1">
          <mxGeometry x="1010" y="240" width="70" height="90" as="geometry" />
        </mxCell>
        <mxCell id="eYM0LTBjd1gjEZdHAvqP-141" value="Replica 1&lt;br&gt;(shard-2-1)" style="shape=cylinder3;whiteSpace=wrap;html=1;boundedLbl=1;backgroundOutline=1;size=15;container=0;" parent="eYM0LTBjd1gjEZdHAvqP-156" vertex="1">
          <mxGeometry x="1010" y="390" width="70" height="90" as="geometry" />
        </mxCell>
        <mxCell id="eYM0LTBjd1gjEZdHAvqP-142" value="Replica 2&lt;div&gt;(shard-2-2)&lt;/div&gt;" style="shape=cylinder3;whiteSpace=wrap;html=1;boundedLbl=1;backgroundOutline=1;size=15;container=0;" parent="eYM0LTBjd1gjEZdHAvqP-156" vertex="1">
          <mxGeometry x="1010" y="490" width="70" height="90" as="geometry" />
        </mxCell>
        <mxCell id="eYM0LTBjd1gjEZdHAvqP-143" value="Replica 3&lt;div&gt;(shard-2-3)&lt;/div&gt;" style="shape=cylinder3;whiteSpace=wrap;html=1;boundedLbl=1;backgroundOutline=1;size=15;container=0;" parent="eYM0LTBjd1gjEZdHAvqP-156" vertex="1">
          <mxGeometry x="1010" y="590" width="70" height="90" as="geometry" />
        </mxCell>
        <mxCell id="eYM0LTBjd1gjEZdHAvqP-144" style="edgeStyle=orthogonalEdgeStyle;rounded=0;orthogonalLoop=1;jettySize=auto;html=1;entryX=0;entryY=0.5;entryDx=0;entryDy=0;entryPerimeter=0;dashed=1;" parent="eYM0LTBjd1gjEZdHAvqP-156" source="eYM0LTBjd1gjEZdHAvqP-136" target="eYM0LTBjd1gjEZdHAvqP-138" edge="1">
          <mxGeometry relative="1" as="geometry" />
        </mxCell>
        <mxCell id="eYM0LTBjd1gjEZdHAvqP-145" style="edgeStyle=orthogonalEdgeStyle;rounded=0;orthogonalLoop=1;jettySize=auto;html=1;entryX=0.044;entryY=0.589;entryDx=0;entryDy=0;entryPerimeter=0;dashed=1;" parent="eYM0LTBjd1gjEZdHAvqP-156" source="eYM0LTBjd1gjEZdHAvqP-136" target="eYM0LTBjd1gjEZdHAvqP-139" edge="1">
          <mxGeometry relative="1" as="geometry" />
        </mxCell>
        <mxCell id="eYM0LTBjd1gjEZdHAvqP-146" style="edgeStyle=orthogonalEdgeStyle;rounded=0;orthogonalLoop=1;jettySize=auto;html=1;entryX=-0.004;entryY=0.593;entryDx=0;entryDy=0;entryPerimeter=0;dashed=1;" parent="eYM0LTBjd1gjEZdHAvqP-156" source="eYM0LTBjd1gjEZdHAvqP-136" target="eYM0LTBjd1gjEZdHAvqP-140" edge="1">
          <mxGeometry relative="1" as="geometry" />
        </mxCell>
        <mxCell id="eYM0LTBjd1gjEZdHAvqP-147" style="edgeStyle=orthogonalEdgeStyle;rounded=0;orthogonalLoop=1;jettySize=auto;html=1;entryX=-0.013;entryY=0.584;entryDx=0;entryDy=0;entryPerimeter=0;dashed=1;" parent="eYM0LTBjd1gjEZdHAvqP-156" source="eYM0LTBjd1gjEZdHAvqP-137" target="eYM0LTBjd1gjEZdHAvqP-141" edge="1">
          <mxGeometry relative="1" as="geometry" />
        </mxCell>
        <mxCell id="eYM0LTBjd1gjEZdHAvqP-148" style="edgeStyle=orthogonalEdgeStyle;rounded=0;orthogonalLoop=1;jettySize=auto;html=1;entryX=0.033;entryY=0.559;entryDx=0;entryDy=0;entryPerimeter=0;dashed=1;" parent="eYM0LTBjd1gjEZdHAvqP-156" source="eYM0LTBjd1gjEZdHAvqP-137" target="eYM0LTBjd1gjEZdHAvqP-142" edge="1">
          <mxGeometry relative="1" as="geometry" />
        </mxCell>
        <mxCell id="eYM0LTBjd1gjEZdHAvqP-149" style="edgeStyle=orthogonalEdgeStyle;rounded=0;orthogonalLoop=1;jettySize=auto;html=1;entryX=-0.002;entryY=0.593;entryDx=0;entryDy=0;entryPerimeter=0;dashed=1;" parent="eYM0LTBjd1gjEZdHAvqP-156" source="eYM0LTBjd1gjEZdHAvqP-137" target="eYM0LTBjd1gjEZdHAvqP-143" edge="1">
          <mxGeometry relative="1" as="geometry" />
        </mxCell>
        <mxCell id="eYM0LTBjd1gjEZdHAvqP-150" value="Redis" style="rhombus;whiteSpace=wrap;html=1;container=0;" parent="eYM0LTBjd1gjEZdHAvqP-156" vertex="1">
          <mxGeometry x="535" y="300" width="140" height="170" as="geometry" />
        </mxCell>
        <mxCell id="fGEN_x_BeK6-Chwx7Do9-2" value="" style="rounded=0;whiteSpace=wrap;html=1;container=0;" vertex="1" parent="1">
          <mxGeometry x="40" y="2250" width="1650" height="1590" as="geometry" />
        </mxCell>
        <mxCell id="fGEN_x_BeK6-Chwx7Do9-3" style="edgeStyle=orthogonalEdgeStyle;rounded=0;orthogonalLoop=1;jettySize=auto;html=1;entryX=0;entryY=0;entryDx=0;entryDy=52.5;entryPerimeter=0;exitX=1.001;exitY=0.445;exitDx=0;exitDy=0;exitPerimeter=0;" edge="1" parent="1" source="fGEN_x_BeK6-Chwx7Do9-13" target="fGEN_x_BeK6-Chwx7Do9-15">
          <mxGeometry relative="1" as="geometry" />
        </mxCell>
        <mxCell id="fGEN_x_BeK6-Chwx7Do9-4" style="edgeStyle=orthogonalEdgeStyle;rounded=0;orthogonalLoop=1;jettySize=auto;html=1;entryX=0;entryY=0.5;entryDx=0;entryDy=0;entryPerimeter=0;exitX=0.997;exitY=0.434;exitDx=0;exitDy=0;exitPerimeter=0;" edge="1" parent="1" source="fGEN_x_BeK6-Chwx7Do9-13" target="fGEN_x_BeK6-Chwx7Do9-14">
          <mxGeometry relative="1" as="geometry">
            <mxPoint x="1180" y="2670" as="sourcePoint" />
            <mxPoint x="1080" y="2700" as="targetPoint" />
          </mxGeometry>
        </mxCell>
        <mxCell id="fGEN_x_BeK6-Chwx7Do9-5" value="" style="rounded=1;whiteSpace=wrap;html=1;fillColor=#DBCEE0;container=0;" vertex="1" parent="1">
          <mxGeometry x="740" y="2290" width="900" height="670" as="geometry" />
        </mxCell>
        <mxCell id="fGEN_x_BeK6-Chwx7Do9-6" value="&lt;b&gt;DB Cluster&lt;/b&gt;" style="text;html=1;align=center;verticalAlign=middle;whiteSpace=wrap;rounded=0;container=0;" vertex="1" parent="1">
          <mxGeometry x="799.9972413793104" y="2332.424705882353" width="121.37931034482757" height="25.147058823529413" as="geometry" />
        </mxCell>
        <mxCell id="fGEN_x_BeK6-Chwx7Do9-7" style="edgeStyle=orthogonalEdgeStyle;rounded=0;orthogonalLoop=1;jettySize=auto;html=1;entryX=0;entryY=0;entryDx=0;entryDy=67.5;entryPerimeter=0;exitX=1;exitY=0.5;exitDx=0;exitDy=0;" edge="1" parent="1" source="fGEN_x_BeK6-Chwx7Do9-28" target="fGEN_x_BeK6-Chwx7Do9-14">
          <mxGeometry relative="1" as="geometry" />
        </mxCell>
        <mxCell id="fGEN_x_BeK6-Chwx7Do9-8" style="edgeStyle=orthogonalEdgeStyle;rounded=0;orthogonalLoop=1;jettySize=auto;html=1;entryX=-0.001;entryY=0.574;entryDx=0;entryDy=0;entryPerimeter=0;exitX=1;exitY=0.5;exitDx=0;exitDy=0;" edge="1" parent="1" source="fGEN_x_BeK6-Chwx7Do9-28" target="fGEN_x_BeK6-Chwx7Do9-15">
          <mxGeometry relative="1" as="geometry" />
        </mxCell>
        <mxCell id="fGEN_x_BeK6-Chwx7Do9-9" value="&lt;font style=&quot;forced-color-adjust: none; font-size: 16px;&quot;&gt;&lt;b style=&quot;forced-color-adjust: none;&quot;&gt;5) Gateway state&lt;/b&gt;&lt;/font&gt;" style="text;html=1;align=center;verticalAlign=middle;whiteSpace=wrap;rounded=0;container=0;" vertex="1" parent="1">
          <mxGeometry x="140" y="2310.000909090909" width="150" height="27.272727272727273" as="geometry" />
        </mxCell>
        <mxCell id="fGEN_x_BeK6-Chwx7Do9-10" style="edgeStyle=orthogonalEdgeStyle;rounded=0;orthogonalLoop=1;jettySize=auto;html=1;entryX=0;entryY=0.5;entryDx=0;entryDy=0;" edge="1" parent="1" source="fGEN_x_BeK6-Chwx7Do9-11" target="fGEN_x_BeK6-Chwx7Do9-159">
          <mxGeometry relative="1" as="geometry">
            <mxPoint x="420" y="3068" as="targetPoint" />
          </mxGeometry>
        </mxCell>
        <mxCell id="fGEN_x_BeK6-Chwx7Do9-11" value="pymongo-api" style="rounded=1;whiteSpace=wrap;html=1;container=0;" vertex="1" parent="1">
          <mxGeometry x="160" y="3039.9954545454543" width="120" height="54.54545454545455" as="geometry" />
        </mxCell>
        <mxCell id="fGEN_x_BeK6-Chwx7Do9-12" style="edgeStyle=orthogonalEdgeStyle;rounded=0;orthogonalLoop=1;jettySize=auto;html=1;entryX=0;entryY=0.5;entryDx=0;entryDy=0;" edge="1" parent="1" source="fGEN_x_BeK6-Chwx7Do9-13" target="fGEN_x_BeK6-Chwx7Do9-28">
          <mxGeometry relative="1" as="geometry" />
        </mxCell>
        <mxCell id="fGEN_x_BeK6-Chwx7Do9-165" style="edgeStyle=orthogonalEdgeStyle;rounded=0;orthogonalLoop=1;jettySize=auto;html=1;entryX=0;entryY=0.5;entryDx=0;entryDy=0;" edge="1" parent="1" source="fGEN_x_BeK6-Chwx7Do9-13" target="fGEN_x_BeK6-Chwx7Do9-161">
          <mxGeometry relative="1" as="geometry">
            <Array as="points">
              <mxPoint x="880" y="2570" />
              <mxPoint x="100" y="2570" />
              <mxPoint x="100" y="3190" />
            </Array>
          </mxGeometry>
        </mxCell>
        <mxCell id="fGEN_x_BeK6-Chwx7Do9-13" value="&lt;span style=&quot;color: rgba(0, 0, 0, 0.85); font-family: Menlo, &amp;quot;Ubuntu Mono&amp;quot;, consolas, source-code-pro, monospace; font-size: 14px; text-align: start; white-space: pre; background-color: rgb(245, 245, 245);&quot;&gt;Сервер конфигурации&lt;/span&gt;&lt;div&gt;&lt;span style=&quot;color: rgba(0, 0, 0, 0.85); font-family: Menlo, &amp;quot;Ubuntu Mono&amp;quot;, consolas, source-code-pro, monospace; font-size: 14px; text-align: start; white-space: pre; background-color: rgb(245, 245, 245);&quot;&gt;(configSrv)&lt;/span&gt;&lt;/div&gt;" style="rounded=1;whiteSpace=wrap;html=1;container=0;" vertex="1" parent="1">
          <mxGeometry x="800" y="2605" width="160" height="80" as="geometry" />
        </mxCell>
        <mxCell id="fGEN_x_BeK6-Chwx7Do9-14" value="MongoDB&lt;br&gt;Shard 1&lt;br&gt;(shard-1)" style="shape=cylinder3;whiteSpace=wrap;html=1;boundedLbl=1;backgroundOutline=1;size=15;container=0;" vertex="1" parent="1">
          <mxGeometry x="1300" y="2402" width="70" height="100" as="geometry" />
        </mxCell>
        <mxCell id="fGEN_x_BeK6-Chwx7Do9-15" value="MongoDB&lt;div&gt;Shard 2&lt;/div&gt;&lt;div&gt;(shard-2)&lt;/div&gt;" style="shape=cylinder3;whiteSpace=wrap;html=1;boundedLbl=1;backgroundOutline=1;size=15;container=0;" vertex="1" parent="1">
          <mxGeometry x="1300" y="2745" width="70" height="110" as="geometry" />
        </mxCell>
        <mxCell id="fGEN_x_BeK6-Chwx7Do9-16" value="Replica 1&lt;div&gt;(shard-1-1)&lt;/div&gt;" style="shape=cylinder3;whiteSpace=wrap;html=1;boundedLbl=1;backgroundOutline=1;size=15;container=0;" vertex="1" parent="1">
          <mxGeometry x="1490" y="2300" width="70" height="90" as="geometry" />
        </mxCell>
        <mxCell id="fGEN_x_BeK6-Chwx7Do9-17" value="Replica 2&lt;div&gt;(shard-1-2)&lt;/div&gt;" style="shape=cylinder3;whiteSpace=wrap;html=1;boundedLbl=1;backgroundOutline=1;size=15;container=0;" vertex="1" parent="1">
          <mxGeometry x="1490" y="2400" width="70" height="90" as="geometry" />
        </mxCell>
        <mxCell id="fGEN_x_BeK6-Chwx7Do9-18" value="Replica 3&lt;div&gt;(shard-1-3)&lt;/div&gt;" style="shape=cylinder3;whiteSpace=wrap;html=1;boundedLbl=1;backgroundOutline=1;size=15;container=0;" vertex="1" parent="1">
          <mxGeometry x="1490" y="2500" width="70" height="90" as="geometry" />
        </mxCell>
        <mxCell id="fGEN_x_BeK6-Chwx7Do9-19" value="Replica 1&lt;br&gt;(shard-2-1)" style="shape=cylinder3;whiteSpace=wrap;html=1;boundedLbl=1;backgroundOutline=1;size=15;container=0;" vertex="1" parent="1">
          <mxGeometry x="1490" y="2650" width="70" height="90" as="geometry" />
        </mxCell>
        <mxCell id="fGEN_x_BeK6-Chwx7Do9-20" value="Replica 2&lt;div&gt;(shard-2-2)&lt;/div&gt;" style="shape=cylinder3;whiteSpace=wrap;html=1;boundedLbl=1;backgroundOutline=1;size=15;container=0;" vertex="1" parent="1">
          <mxGeometry x="1490" y="2750" width="70" height="90" as="geometry" />
        </mxCell>
        <mxCell id="fGEN_x_BeK6-Chwx7Do9-21" value="Replica 3&lt;div&gt;(shard-2-3)&lt;/div&gt;" style="shape=cylinder3;whiteSpace=wrap;html=1;boundedLbl=1;backgroundOutline=1;size=15;container=0;" vertex="1" parent="1">
          <mxGeometry x="1490" y="2850" width="70" height="90" as="geometry" />
        </mxCell>
        <mxCell id="fGEN_x_BeK6-Chwx7Do9-22" style="edgeStyle=orthogonalEdgeStyle;rounded=0;orthogonalLoop=1;jettySize=auto;html=1;entryX=0;entryY=0.5;entryDx=0;entryDy=0;entryPerimeter=0;dashed=1;" edge="1" parent="1" source="fGEN_x_BeK6-Chwx7Do9-14" target="fGEN_x_BeK6-Chwx7Do9-16">
          <mxGeometry relative="1" as="geometry" />
        </mxCell>
        <mxCell id="fGEN_x_BeK6-Chwx7Do9-23" style="edgeStyle=orthogonalEdgeStyle;rounded=0;orthogonalLoop=1;jettySize=auto;html=1;entryX=0.044;entryY=0.589;entryDx=0;entryDy=0;entryPerimeter=0;dashed=1;" edge="1" parent="1" source="fGEN_x_BeK6-Chwx7Do9-14" target="fGEN_x_BeK6-Chwx7Do9-17">
          <mxGeometry relative="1" as="geometry" />
        </mxCell>
        <mxCell id="fGEN_x_BeK6-Chwx7Do9-24" style="edgeStyle=orthogonalEdgeStyle;rounded=0;orthogonalLoop=1;jettySize=auto;html=1;entryX=-0.004;entryY=0.593;entryDx=0;entryDy=0;entryPerimeter=0;dashed=1;" edge="1" parent="1" source="fGEN_x_BeK6-Chwx7Do9-14" target="fGEN_x_BeK6-Chwx7Do9-18">
          <mxGeometry relative="1" as="geometry" />
        </mxCell>
        <mxCell id="fGEN_x_BeK6-Chwx7Do9-25" style="edgeStyle=orthogonalEdgeStyle;rounded=0;orthogonalLoop=1;jettySize=auto;html=1;entryX=-0.013;entryY=0.584;entryDx=0;entryDy=0;entryPerimeter=0;dashed=1;" edge="1" parent="1" source="fGEN_x_BeK6-Chwx7Do9-15" target="fGEN_x_BeK6-Chwx7Do9-19">
          <mxGeometry relative="1" as="geometry" />
        </mxCell>
        <mxCell id="fGEN_x_BeK6-Chwx7Do9-26" style="edgeStyle=orthogonalEdgeStyle;rounded=0;orthogonalLoop=1;jettySize=auto;html=1;entryX=0.033;entryY=0.559;entryDx=0;entryDy=0;entryPerimeter=0;dashed=1;" edge="1" parent="1" source="fGEN_x_BeK6-Chwx7Do9-15" target="fGEN_x_BeK6-Chwx7Do9-20">
          <mxGeometry relative="1" as="geometry" />
        </mxCell>
        <mxCell id="fGEN_x_BeK6-Chwx7Do9-27" style="edgeStyle=orthogonalEdgeStyle;rounded=0;orthogonalLoop=1;jettySize=auto;html=1;entryX=-0.002;entryY=0.593;entryDx=0;entryDy=0;entryPerimeter=0;dashed=1;" edge="1" parent="1" source="fGEN_x_BeK6-Chwx7Do9-15" target="fGEN_x_BeK6-Chwx7Do9-21">
          <mxGeometry relative="1" as="geometry" />
        </mxCell>
        <mxCell id="fGEN_x_BeK6-Chwx7Do9-28" value="Redis" style="rhombus;whiteSpace=wrap;html=1;container=0;" vertex="1" parent="1">
          <mxGeometry x="1015" y="2560" width="140" height="170" as="geometry" />
        </mxCell>
        <mxCell id="fGEN_x_BeK6-Chwx7Do9-134" style="edgeStyle=orthogonalEdgeStyle;rounded=0;orthogonalLoop=1;jettySize=auto;html=1;entryX=0;entryY=0;entryDx=0;entryDy=52.5;entryPerimeter=0;exitX=1.001;exitY=0.445;exitDx=0;exitDy=0;exitPerimeter=0;" edge="1" parent="1" source="fGEN_x_BeK6-Chwx7Do9-141" target="fGEN_x_BeK6-Chwx7Do9-143">
          <mxGeometry relative="1" as="geometry" />
        </mxCell>
        <mxCell id="fGEN_x_BeK6-Chwx7Do9-135" style="edgeStyle=orthogonalEdgeStyle;rounded=0;orthogonalLoop=1;jettySize=auto;html=1;entryX=0;entryY=0.5;entryDx=0;entryDy=0;entryPerimeter=0;exitX=0.997;exitY=0.434;exitDx=0;exitDy=0;exitPerimeter=0;" edge="1" parent="1" source="fGEN_x_BeK6-Chwx7Do9-141" target="fGEN_x_BeK6-Chwx7Do9-142">
          <mxGeometry relative="1" as="geometry">
            <mxPoint x="1180" y="3490" as="sourcePoint" />
            <mxPoint x="1080" y="3520" as="targetPoint" />
          </mxGeometry>
        </mxCell>
        <mxCell id="fGEN_x_BeK6-Chwx7Do9-136" value="" style="rounded=1;whiteSpace=wrap;html=1;fillColor=#DBCEE0;container=0;" vertex="1" parent="1">
          <mxGeometry x="740" y="3110" width="900" height="670" as="geometry" />
        </mxCell>
        <mxCell id="fGEN_x_BeK6-Chwx7Do9-137" value="&lt;b&gt;DB Cluster&lt;/b&gt;" style="text;html=1;align=center;verticalAlign=middle;whiteSpace=wrap;rounded=0;container=0;" vertex="1" parent="1">
          <mxGeometry x="799.9972413793104" y="3152.424705882353" width="121.37931034482757" height="25.147058823529413" as="geometry" />
        </mxCell>
        <mxCell id="fGEN_x_BeK6-Chwx7Do9-138" style="edgeStyle=orthogonalEdgeStyle;rounded=0;orthogonalLoop=1;jettySize=auto;html=1;entryX=0;entryY=0;entryDx=0;entryDy=67.5;entryPerimeter=0;exitX=1;exitY=0.5;exitDx=0;exitDy=0;" edge="1" parent="1" source="fGEN_x_BeK6-Chwx7Do9-156" target="fGEN_x_BeK6-Chwx7Do9-142">
          <mxGeometry relative="1" as="geometry" />
        </mxCell>
        <mxCell id="fGEN_x_BeK6-Chwx7Do9-139" style="edgeStyle=orthogonalEdgeStyle;rounded=0;orthogonalLoop=1;jettySize=auto;html=1;entryX=-0.001;entryY=0.574;entryDx=0;entryDy=0;entryPerimeter=0;exitX=1;exitY=0.5;exitDx=0;exitDy=0;" edge="1" parent="1" source="fGEN_x_BeK6-Chwx7Do9-156" target="fGEN_x_BeK6-Chwx7Do9-143">
          <mxGeometry relative="1" as="geometry" />
        </mxCell>
        <mxCell id="fGEN_x_BeK6-Chwx7Do9-140" style="edgeStyle=orthogonalEdgeStyle;rounded=0;orthogonalLoop=1;jettySize=auto;html=1;entryX=0;entryY=0.5;entryDx=0;entryDy=0;" edge="1" parent="1" source="fGEN_x_BeK6-Chwx7Do9-141" target="fGEN_x_BeK6-Chwx7Do9-156">
          <mxGeometry relative="1" as="geometry" />
        </mxCell>
        <mxCell id="fGEN_x_BeK6-Chwx7Do9-166" style="edgeStyle=orthogonalEdgeStyle;rounded=0;orthogonalLoop=1;jettySize=auto;html=1;entryX=0.5;entryY=1;entryDx=0;entryDy=0;" edge="1" parent="1" source="fGEN_x_BeK6-Chwx7Do9-141" target="fGEN_x_BeK6-Chwx7Do9-161">
          <mxGeometry relative="1" as="geometry">
            <Array as="points">
              <mxPoint x="880" y="3560" />
              <mxPoint x="440" y="3560" />
            </Array>
          </mxGeometry>
        </mxCell>
        <mxCell id="fGEN_x_BeK6-Chwx7Do9-141" value="&lt;span style=&quot;color: rgba(0, 0, 0, 0.85); font-family: Menlo, &amp;quot;Ubuntu Mono&amp;quot;, consolas, source-code-pro, monospace; font-size: 14px; text-align: start; white-space: pre; background-color: rgb(245, 245, 245);&quot;&gt;Сервер конфигурации&lt;/span&gt;&lt;div&gt;&lt;span style=&quot;color: rgba(0, 0, 0, 0.85); font-family: Menlo, &amp;quot;Ubuntu Mono&amp;quot;, consolas, source-code-pro, monospace; font-size: 14px; text-align: start; white-space: pre; background-color: rgb(245, 245, 245);&quot;&gt;(configSrv)&lt;/span&gt;&lt;/div&gt;" style="rounded=1;whiteSpace=wrap;html=1;container=0;" vertex="1" parent="1">
          <mxGeometry x="800" y="3425" width="160" height="80" as="geometry" />
        </mxCell>
        <mxCell id="fGEN_x_BeK6-Chwx7Do9-142" value="MongoDB&lt;br&gt;Shard 1&lt;br&gt;(shard-1)" style="shape=cylinder3;whiteSpace=wrap;html=1;boundedLbl=1;backgroundOutline=1;size=15;container=0;" vertex="1" parent="1">
          <mxGeometry x="1300" y="3222" width="70" height="100" as="geometry" />
        </mxCell>
        <mxCell id="fGEN_x_BeK6-Chwx7Do9-143" value="MongoDB&lt;div&gt;Shard 2&lt;/div&gt;&lt;div&gt;(shard-2)&lt;/div&gt;" style="shape=cylinder3;whiteSpace=wrap;html=1;boundedLbl=1;backgroundOutline=1;size=15;container=0;" vertex="1" parent="1">
          <mxGeometry x="1300" y="3565" width="70" height="110" as="geometry" />
        </mxCell>
        <mxCell id="fGEN_x_BeK6-Chwx7Do9-144" value="Replica 1&lt;div&gt;(shard-1-1)&lt;/div&gt;" style="shape=cylinder3;whiteSpace=wrap;html=1;boundedLbl=1;backgroundOutline=1;size=15;container=0;" vertex="1" parent="1">
          <mxGeometry x="1490" y="3120" width="70" height="90" as="geometry" />
        </mxCell>
        <mxCell id="fGEN_x_BeK6-Chwx7Do9-145" value="Replica 2&lt;div&gt;(shard-1-2)&lt;/div&gt;" style="shape=cylinder3;whiteSpace=wrap;html=1;boundedLbl=1;backgroundOutline=1;size=15;container=0;" vertex="1" parent="1">
          <mxGeometry x="1490" y="3220" width="70" height="90" as="geometry" />
        </mxCell>
        <mxCell id="fGEN_x_BeK6-Chwx7Do9-146" value="Replica 3&lt;div&gt;(shard-1-3)&lt;/div&gt;" style="shape=cylinder3;whiteSpace=wrap;html=1;boundedLbl=1;backgroundOutline=1;size=15;container=0;" vertex="1" parent="1">
          <mxGeometry x="1490" y="3320" width="70" height="90" as="geometry" />
        </mxCell>
        <mxCell id="fGEN_x_BeK6-Chwx7Do9-147" value="Replica 1&lt;br&gt;(shard-2-1)" style="shape=cylinder3;whiteSpace=wrap;html=1;boundedLbl=1;backgroundOutline=1;size=15;container=0;" vertex="1" parent="1">
          <mxGeometry x="1490" y="3470" width="70" height="90" as="geometry" />
        </mxCell>
        <mxCell id="fGEN_x_BeK6-Chwx7Do9-148" value="Replica 2&lt;div&gt;(shard-2-2)&lt;/div&gt;" style="shape=cylinder3;whiteSpace=wrap;html=1;boundedLbl=1;backgroundOutline=1;size=15;container=0;" vertex="1" parent="1">
          <mxGeometry x="1490" y="3570" width="70" height="90" as="geometry" />
        </mxCell>
        <mxCell id="fGEN_x_BeK6-Chwx7Do9-149" value="Replica 3&lt;div&gt;(shard-2-3)&lt;/div&gt;" style="shape=cylinder3;whiteSpace=wrap;html=1;boundedLbl=1;backgroundOutline=1;size=15;container=0;" vertex="1" parent="1">
          <mxGeometry x="1490" y="3670" width="70" height="90" as="geometry" />
        </mxCell>
        <mxCell id="fGEN_x_BeK6-Chwx7Do9-150" style="edgeStyle=orthogonalEdgeStyle;rounded=0;orthogonalLoop=1;jettySize=auto;html=1;entryX=0;entryY=0.5;entryDx=0;entryDy=0;entryPerimeter=0;dashed=1;" edge="1" parent="1" source="fGEN_x_BeK6-Chwx7Do9-142" target="fGEN_x_BeK6-Chwx7Do9-144">
          <mxGeometry relative="1" as="geometry" />
        </mxCell>
        <mxCell id="fGEN_x_BeK6-Chwx7Do9-151" style="edgeStyle=orthogonalEdgeStyle;rounded=0;orthogonalLoop=1;jettySize=auto;html=1;entryX=0.044;entryY=0.589;entryDx=0;entryDy=0;entryPerimeter=0;dashed=1;" edge="1" parent="1" source="fGEN_x_BeK6-Chwx7Do9-142" target="fGEN_x_BeK6-Chwx7Do9-145">
          <mxGeometry relative="1" as="geometry" />
        </mxCell>
        <mxCell id="fGEN_x_BeK6-Chwx7Do9-152" style="edgeStyle=orthogonalEdgeStyle;rounded=0;orthogonalLoop=1;jettySize=auto;html=1;entryX=-0.004;entryY=0.593;entryDx=0;entryDy=0;entryPerimeter=0;dashed=1;" edge="1" parent="1" source="fGEN_x_BeK6-Chwx7Do9-142" target="fGEN_x_BeK6-Chwx7Do9-146">
          <mxGeometry relative="1" as="geometry" />
        </mxCell>
        <mxCell id="fGEN_x_BeK6-Chwx7Do9-153" style="edgeStyle=orthogonalEdgeStyle;rounded=0;orthogonalLoop=1;jettySize=auto;html=1;entryX=-0.013;entryY=0.584;entryDx=0;entryDy=0;entryPerimeter=0;dashed=1;" edge="1" parent="1" source="fGEN_x_BeK6-Chwx7Do9-143" target="fGEN_x_BeK6-Chwx7Do9-147">
          <mxGeometry relative="1" as="geometry" />
        </mxCell>
        <mxCell id="fGEN_x_BeK6-Chwx7Do9-154" style="edgeStyle=orthogonalEdgeStyle;rounded=0;orthogonalLoop=1;jettySize=auto;html=1;entryX=0.033;entryY=0.559;entryDx=0;entryDy=0;entryPerimeter=0;dashed=1;" edge="1" parent="1" source="fGEN_x_BeK6-Chwx7Do9-143" target="fGEN_x_BeK6-Chwx7Do9-148">
          <mxGeometry relative="1" as="geometry" />
        </mxCell>
        <mxCell id="fGEN_x_BeK6-Chwx7Do9-155" style="edgeStyle=orthogonalEdgeStyle;rounded=0;orthogonalLoop=1;jettySize=auto;html=1;entryX=-0.002;entryY=0.593;entryDx=0;entryDy=0;entryPerimeter=0;dashed=1;" edge="1" parent="1" source="fGEN_x_BeK6-Chwx7Do9-143" target="fGEN_x_BeK6-Chwx7Do9-149">
          <mxGeometry relative="1" as="geometry" />
        </mxCell>
        <mxCell id="fGEN_x_BeK6-Chwx7Do9-156" value="Redis" style="rhombus;whiteSpace=wrap;html=1;container=0;" vertex="1" parent="1">
          <mxGeometry x="1015" y="3380" width="140" height="170" as="geometry" />
        </mxCell>
        <mxCell id="fGEN_x_BeK6-Chwx7Do9-163" style="edgeStyle=orthogonalEdgeStyle;rounded=0;orthogonalLoop=1;jettySize=auto;html=1;entryX=0;entryY=0.5;entryDx=0;entryDy=0;" edge="1" parent="1" source="fGEN_x_BeK6-Chwx7Do9-159" target="fGEN_x_BeK6-Chwx7Do9-13">
          <mxGeometry relative="1" as="geometry" />
        </mxCell>
        <mxCell id="fGEN_x_BeK6-Chwx7Do9-164" style="edgeStyle=orthogonalEdgeStyle;rounded=0;orthogonalLoop=1;jettySize=auto;html=1;entryX=0;entryY=0.5;entryDx=0;entryDy=0;" edge="1" parent="1" source="fGEN_x_BeK6-Chwx7Do9-159" target="fGEN_x_BeK6-Chwx7Do9-141">
          <mxGeometry relative="1" as="geometry" />
        </mxCell>
        <mxCell id="fGEN_x_BeK6-Chwx7Do9-159" value="APISIX Gateway" style="rounded=1;whiteSpace=wrap;html=1;" vertex="1" parent="1">
          <mxGeometry x="380" y="3037.27" width="120" height="60" as="geometry" />
        </mxCell>
        <mxCell id="fGEN_x_BeK6-Chwx7Do9-162" style="edgeStyle=orthogonalEdgeStyle;rounded=0;orthogonalLoop=1;jettySize=auto;html=1;entryX=0.5;entryY=0;entryDx=0;entryDy=0;" edge="1" parent="1" source="fGEN_x_BeK6-Chwx7Do9-160" target="fGEN_x_BeK6-Chwx7Do9-161">
          <mxGeometry relative="1" as="geometry" />
        </mxCell>
        <mxCell id="fGEN_x_BeK6-Chwx7Do9-160" value="consul_kv" style="rounded=0;whiteSpace=wrap;html=1;" vertex="1" parent="1">
          <mxGeometry x="400" y="3080" width="80" height="30" as="geometry" />
        </mxCell>
        <mxCell id="fGEN_x_BeK6-Chwx7Do9-161" value="Consul" style="rounded=1;whiteSpace=wrap;html=1;" vertex="1" parent="1">
          <mxGeometry x="380" y="3160" width="120" height="60" as="geometry" />
        </mxCell>
        <mxCell id="fGEN_x_BeK6-Chwx7Do9-167" value="" style="rounded=0;whiteSpace=wrap;html=1;container=0;" vertex="1" parent="1">
          <mxGeometry x="30" y="3950" width="2300" height="1590" as="geometry" />
        </mxCell>
        <mxCell id="fGEN_x_BeK6-Chwx7Do9-168" style="edgeStyle=orthogonalEdgeStyle;rounded=0;orthogonalLoop=1;jettySize=auto;html=1;entryX=0;entryY=0;entryDx=0;entryDy=52.5;entryPerimeter=0;exitX=1.001;exitY=0.445;exitDx=0;exitDy=0;exitPerimeter=0;" edge="1" parent="1" source="fGEN_x_BeK6-Chwx7Do9-179" target="fGEN_x_BeK6-Chwx7Do9-181">
          <mxGeometry relative="1" as="geometry" />
        </mxCell>
        <mxCell id="fGEN_x_BeK6-Chwx7Do9-169" style="edgeStyle=orthogonalEdgeStyle;rounded=0;orthogonalLoop=1;jettySize=auto;html=1;entryX=0;entryY=0.5;entryDx=0;entryDy=0;entryPerimeter=0;exitX=0.997;exitY=0.434;exitDx=0;exitDy=0;exitPerimeter=0;" edge="1" parent="1" source="fGEN_x_BeK6-Chwx7Do9-179" target="fGEN_x_BeK6-Chwx7Do9-180">
          <mxGeometry relative="1" as="geometry">
            <mxPoint x="1590" y="4370" as="sourcePoint" />
            <mxPoint x="1490" y="4400" as="targetPoint" />
          </mxGeometry>
        </mxCell>
        <mxCell id="fGEN_x_BeK6-Chwx7Do9-170" value="" style="rounded=1;whiteSpace=wrap;html=1;fillColor=#DBCEE0;container=0;" vertex="1" parent="1">
          <mxGeometry x="1150" y="3990" width="900" height="670" as="geometry" />
        </mxCell>
        <mxCell id="fGEN_x_BeK6-Chwx7Do9-171" value="&lt;b&gt;DB Cluster&lt;/b&gt;" style="text;html=1;align=center;verticalAlign=middle;whiteSpace=wrap;rounded=0;container=0;" vertex="1" parent="1">
          <mxGeometry x="1159.9972413793103" y="4037.274705882353" width="121.37931034482757" height="25.147058823529413" as="geometry" />
        </mxCell>
        <mxCell id="fGEN_x_BeK6-Chwx7Do9-172" style="edgeStyle=orthogonalEdgeStyle;rounded=0;orthogonalLoop=1;jettySize=auto;html=1;entryX=0;entryY=0;entryDx=0;entryDy=67.5;entryPerimeter=0;exitX=1;exitY=0.5;exitDx=0;exitDy=0;" edge="1" parent="1" source="fGEN_x_BeK6-Chwx7Do9-194" target="fGEN_x_BeK6-Chwx7Do9-180">
          <mxGeometry relative="1" as="geometry" />
        </mxCell>
        <mxCell id="fGEN_x_BeK6-Chwx7Do9-173" style="edgeStyle=orthogonalEdgeStyle;rounded=0;orthogonalLoop=1;jettySize=auto;html=1;entryX=-0.001;entryY=0.574;entryDx=0;entryDy=0;entryPerimeter=0;exitX=1;exitY=0.5;exitDx=0;exitDy=0;" edge="1" parent="1" source="fGEN_x_BeK6-Chwx7Do9-194" target="fGEN_x_BeK6-Chwx7Do9-181">
          <mxGeometry relative="1" as="geometry" />
        </mxCell>
        <mxCell id="fGEN_x_BeK6-Chwx7Do9-174" value="&lt;font style=&quot;forced-color-adjust: none; font-size: 16px;&quot;&gt;&lt;b style=&quot;forced-color-adjust: none;&quot;&gt;6) CDN State&lt;/b&gt;&lt;/font&gt;" style="text;html=1;align=center;verticalAlign=middle;whiteSpace=wrap;rounded=0;container=0;" vertex="1" parent="1">
          <mxGeometry x="70" y="3990.000909090909" width="150" height="27.272727272727273" as="geometry" />
        </mxCell>
        <mxCell id="fGEN_x_BeK6-Chwx7Do9-175" style="edgeStyle=orthogonalEdgeStyle;rounded=0;orthogonalLoop=1;jettySize=auto;html=1;entryX=0;entryY=0.5;entryDx=0;entryDy=0;" edge="1" parent="1" source="fGEN_x_BeK6-Chwx7Do9-176" target="fGEN_x_BeK6-Chwx7Do9-221">
          <mxGeometry relative="1" as="geometry">
            <mxPoint x="830" y="4768" as="targetPoint" />
          </mxGeometry>
        </mxCell>
        <mxCell id="fGEN_x_BeK6-Chwx7Do9-176" value="pymongo-api" style="rounded=1;whiteSpace=wrap;html=1;container=0;" vertex="1" parent="1">
          <mxGeometry x="570" y="4739.995454545455" width="120" height="54.54545454545455" as="geometry" />
        </mxCell>
        <mxCell id="fGEN_x_BeK6-Chwx7Do9-177" style="edgeStyle=orthogonalEdgeStyle;rounded=0;orthogonalLoop=1;jettySize=auto;html=1;entryX=0;entryY=0.5;entryDx=0;entryDy=0;" edge="1" parent="1" source="fGEN_x_BeK6-Chwx7Do9-179" target="fGEN_x_BeK6-Chwx7Do9-194">
          <mxGeometry relative="1" as="geometry" />
        </mxCell>
        <mxCell id="fGEN_x_BeK6-Chwx7Do9-178" style="edgeStyle=orthogonalEdgeStyle;rounded=0;orthogonalLoop=1;jettySize=auto;html=1;entryX=0.124;entryY=1.003;entryDx=0;entryDy=0;entryPerimeter=0;" edge="1" parent="1" source="fGEN_x_BeK6-Chwx7Do9-179" target="fGEN_x_BeK6-Chwx7Do9-224">
          <mxGeometry relative="1" as="geometry">
            <Array as="points">
              <mxPoint x="1290" y="3970" />
              <mxPoint x="2260" y="3970" />
              <mxPoint x="2260" y="5520" />
              <mxPoint x="805" y="5520" />
            </Array>
          </mxGeometry>
        </mxCell>
        <mxCell id="fGEN_x_BeK6-Chwx7Do9-179" value="&lt;span style=&quot;color: rgba(0, 0, 0, 0.85); font-family: Menlo, &amp;quot;Ubuntu Mono&amp;quot;, consolas, source-code-pro, monospace; font-size: 14px; text-align: start; white-space: pre; background-color: rgb(245, 245, 245);&quot;&gt;Сервер конфигурации&lt;/span&gt;&lt;div&gt;&lt;span style=&quot;color: rgba(0, 0, 0, 0.85); font-family: Menlo, &amp;quot;Ubuntu Mono&amp;quot;, consolas, source-code-pro, monospace; font-size: 14px; text-align: start; white-space: pre; background-color: rgb(245, 245, 245);&quot;&gt;(configSrv)&lt;/span&gt;&lt;/div&gt;" style="rounded=1;whiteSpace=wrap;html=1;container=0;" vertex="1" parent="1">
          <mxGeometry x="1210" y="4305" width="160" height="80" as="geometry" />
        </mxCell>
        <mxCell id="fGEN_x_BeK6-Chwx7Do9-180" value="MongoDB&lt;br&gt;Shard 1&lt;br&gt;(shard-1)" style="shape=cylinder3;whiteSpace=wrap;html=1;boundedLbl=1;backgroundOutline=1;size=15;container=0;" vertex="1" parent="1">
          <mxGeometry x="1710" y="4102" width="70" height="100" as="geometry" />
        </mxCell>
        <mxCell id="fGEN_x_BeK6-Chwx7Do9-181" value="MongoDB&lt;div&gt;Shard 2&lt;/div&gt;&lt;div&gt;(shard-2)&lt;/div&gt;" style="shape=cylinder3;whiteSpace=wrap;html=1;boundedLbl=1;backgroundOutline=1;size=15;container=0;" vertex="1" parent="1">
          <mxGeometry x="1710" y="4445" width="70" height="110" as="geometry" />
        </mxCell>
        <mxCell id="fGEN_x_BeK6-Chwx7Do9-182" value="Replica 1&lt;div&gt;(shard-1-1)&lt;/div&gt;" style="shape=cylinder3;whiteSpace=wrap;html=1;boundedLbl=1;backgroundOutline=1;size=15;container=0;" vertex="1" parent="1">
          <mxGeometry x="1900" y="4000" width="70" height="90" as="geometry" />
        </mxCell>
        <mxCell id="fGEN_x_BeK6-Chwx7Do9-183" value="Replica 2&lt;div&gt;(shard-1-2)&lt;/div&gt;" style="shape=cylinder3;whiteSpace=wrap;html=1;boundedLbl=1;backgroundOutline=1;size=15;container=0;" vertex="1" parent="1">
          <mxGeometry x="1900" y="4100" width="70" height="90" as="geometry" />
        </mxCell>
        <mxCell id="fGEN_x_BeK6-Chwx7Do9-184" value="Replica 3&lt;div&gt;(shard-1-3)&lt;/div&gt;" style="shape=cylinder3;whiteSpace=wrap;html=1;boundedLbl=1;backgroundOutline=1;size=15;container=0;" vertex="1" parent="1">
          <mxGeometry x="1900" y="4200" width="70" height="90" as="geometry" />
        </mxCell>
        <mxCell id="fGEN_x_BeK6-Chwx7Do9-185" value="Replica 1&lt;br&gt;(shard-2-1)" style="shape=cylinder3;whiteSpace=wrap;html=1;boundedLbl=1;backgroundOutline=1;size=15;container=0;" vertex="1" parent="1">
          <mxGeometry x="1900" y="4350" width="70" height="90" as="geometry" />
        </mxCell>
        <mxCell id="fGEN_x_BeK6-Chwx7Do9-186" value="Replica 2&lt;div&gt;(shard-2-2)&lt;/div&gt;" style="shape=cylinder3;whiteSpace=wrap;html=1;boundedLbl=1;backgroundOutline=1;size=15;container=0;" vertex="1" parent="1">
          <mxGeometry x="1900" y="4450" width="70" height="90" as="geometry" />
        </mxCell>
        <mxCell id="fGEN_x_BeK6-Chwx7Do9-187" value="Replica 3&lt;div&gt;(shard-2-3)&lt;/div&gt;" style="shape=cylinder3;whiteSpace=wrap;html=1;boundedLbl=1;backgroundOutline=1;size=15;container=0;" vertex="1" parent="1">
          <mxGeometry x="1900" y="4550" width="70" height="90" as="geometry" />
        </mxCell>
        <mxCell id="fGEN_x_BeK6-Chwx7Do9-188" style="edgeStyle=orthogonalEdgeStyle;rounded=0;orthogonalLoop=1;jettySize=auto;html=1;entryX=0;entryY=0.5;entryDx=0;entryDy=0;entryPerimeter=0;dashed=1;" edge="1" parent="1" source="fGEN_x_BeK6-Chwx7Do9-180" target="fGEN_x_BeK6-Chwx7Do9-182">
          <mxGeometry relative="1" as="geometry" />
        </mxCell>
        <mxCell id="fGEN_x_BeK6-Chwx7Do9-189" style="edgeStyle=orthogonalEdgeStyle;rounded=0;orthogonalLoop=1;jettySize=auto;html=1;entryX=0.044;entryY=0.589;entryDx=0;entryDy=0;entryPerimeter=0;dashed=1;" edge="1" parent="1" source="fGEN_x_BeK6-Chwx7Do9-180" target="fGEN_x_BeK6-Chwx7Do9-183">
          <mxGeometry relative="1" as="geometry" />
        </mxCell>
        <mxCell id="fGEN_x_BeK6-Chwx7Do9-190" style="edgeStyle=orthogonalEdgeStyle;rounded=0;orthogonalLoop=1;jettySize=auto;html=1;entryX=-0.004;entryY=0.593;entryDx=0;entryDy=0;entryPerimeter=0;dashed=1;" edge="1" parent="1" source="fGEN_x_BeK6-Chwx7Do9-180" target="fGEN_x_BeK6-Chwx7Do9-184">
          <mxGeometry relative="1" as="geometry" />
        </mxCell>
        <mxCell id="fGEN_x_BeK6-Chwx7Do9-191" style="edgeStyle=orthogonalEdgeStyle;rounded=0;orthogonalLoop=1;jettySize=auto;html=1;entryX=-0.013;entryY=0.584;entryDx=0;entryDy=0;entryPerimeter=0;dashed=1;" edge="1" parent="1" source="fGEN_x_BeK6-Chwx7Do9-181" target="fGEN_x_BeK6-Chwx7Do9-185">
          <mxGeometry relative="1" as="geometry" />
        </mxCell>
        <mxCell id="fGEN_x_BeK6-Chwx7Do9-192" style="edgeStyle=orthogonalEdgeStyle;rounded=0;orthogonalLoop=1;jettySize=auto;html=1;entryX=0.033;entryY=0.559;entryDx=0;entryDy=0;entryPerimeter=0;dashed=1;" edge="1" parent="1" source="fGEN_x_BeK6-Chwx7Do9-181" target="fGEN_x_BeK6-Chwx7Do9-186">
          <mxGeometry relative="1" as="geometry" />
        </mxCell>
        <mxCell id="fGEN_x_BeK6-Chwx7Do9-193" style="edgeStyle=orthogonalEdgeStyle;rounded=0;orthogonalLoop=1;jettySize=auto;html=1;entryX=-0.002;entryY=0.593;entryDx=0;entryDy=0;entryPerimeter=0;dashed=1;" edge="1" parent="1" source="fGEN_x_BeK6-Chwx7Do9-181" target="fGEN_x_BeK6-Chwx7Do9-187">
          <mxGeometry relative="1" as="geometry" />
        </mxCell>
        <mxCell id="fGEN_x_BeK6-Chwx7Do9-194" value="Redis" style="rhombus;whiteSpace=wrap;html=1;container=0;" vertex="1" parent="1">
          <mxGeometry x="1425" y="4260" width="140" height="170" as="geometry" />
        </mxCell>
        <mxCell id="fGEN_x_BeK6-Chwx7Do9-195" style="edgeStyle=orthogonalEdgeStyle;rounded=0;orthogonalLoop=1;jettySize=auto;html=1;entryX=0;entryY=0;entryDx=0;entryDy=52.5;entryPerimeter=0;exitX=1.001;exitY=0.445;exitDx=0;exitDy=0;exitPerimeter=0;" edge="1" parent="1" source="fGEN_x_BeK6-Chwx7Do9-203" target="fGEN_x_BeK6-Chwx7Do9-205">
          <mxGeometry relative="1" as="geometry" />
        </mxCell>
        <mxCell id="fGEN_x_BeK6-Chwx7Do9-196" style="edgeStyle=orthogonalEdgeStyle;rounded=0;orthogonalLoop=1;jettySize=auto;html=1;entryX=0;entryY=0.5;entryDx=0;entryDy=0;entryPerimeter=0;exitX=0.997;exitY=0.434;exitDx=0;exitDy=0;exitPerimeter=0;" edge="1" parent="1" source="fGEN_x_BeK6-Chwx7Do9-203" target="fGEN_x_BeK6-Chwx7Do9-204">
          <mxGeometry relative="1" as="geometry">
            <mxPoint x="1590" y="5190" as="sourcePoint" />
            <mxPoint x="1490" y="5220" as="targetPoint" />
          </mxGeometry>
        </mxCell>
        <mxCell id="fGEN_x_BeK6-Chwx7Do9-197" value="" style="rounded=1;whiteSpace=wrap;html=1;fillColor=#DBCEE0;container=0;" vertex="1" parent="1">
          <mxGeometry x="1150" y="4810" width="900" height="670" as="geometry" />
        </mxCell>
        <mxCell id="fGEN_x_BeK6-Chwx7Do9-198" value="&lt;b&gt;DB Cluster&lt;/b&gt;" style="text;html=1;align=center;verticalAlign=middle;whiteSpace=wrap;rounded=0;container=0;" vertex="1" parent="1">
          <mxGeometry x="1209.9972413793103" y="4852.424705882353" width="121.37931034482757" height="25.147058823529413" as="geometry" />
        </mxCell>
        <mxCell id="fGEN_x_BeK6-Chwx7Do9-199" style="edgeStyle=orthogonalEdgeStyle;rounded=0;orthogonalLoop=1;jettySize=auto;html=1;entryX=0;entryY=0;entryDx=0;entryDy=67.5;entryPerimeter=0;exitX=1;exitY=0.5;exitDx=0;exitDy=0;" edge="1" parent="1" source="fGEN_x_BeK6-Chwx7Do9-218" target="fGEN_x_BeK6-Chwx7Do9-204">
          <mxGeometry relative="1" as="geometry" />
        </mxCell>
        <mxCell id="fGEN_x_BeK6-Chwx7Do9-200" style="edgeStyle=orthogonalEdgeStyle;rounded=0;orthogonalLoop=1;jettySize=auto;html=1;entryX=-0.001;entryY=0.574;entryDx=0;entryDy=0;entryPerimeter=0;exitX=1;exitY=0.5;exitDx=0;exitDy=0;" edge="1" parent="1" source="fGEN_x_BeK6-Chwx7Do9-218" target="fGEN_x_BeK6-Chwx7Do9-205">
          <mxGeometry relative="1" as="geometry" />
        </mxCell>
        <mxCell id="fGEN_x_BeK6-Chwx7Do9-201" style="edgeStyle=orthogonalEdgeStyle;rounded=0;orthogonalLoop=1;jettySize=auto;html=1;entryX=0;entryY=0.5;entryDx=0;entryDy=0;" edge="1" parent="1" source="fGEN_x_BeK6-Chwx7Do9-203" target="fGEN_x_BeK6-Chwx7Do9-218">
          <mxGeometry relative="1" as="geometry" />
        </mxCell>
        <mxCell id="fGEN_x_BeK6-Chwx7Do9-202" style="edgeStyle=orthogonalEdgeStyle;rounded=0;orthogonalLoop=1;jettySize=auto;html=1;entryX=0.5;entryY=1;entryDx=0;entryDy=0;" edge="1" parent="1" source="fGEN_x_BeK6-Chwx7Do9-203" target="fGEN_x_BeK6-Chwx7Do9-224">
          <mxGeometry relative="1" as="geometry">
            <Array as="points">
              <mxPoint x="1290" y="5260" />
              <mxPoint x="850" y="5260" />
            </Array>
          </mxGeometry>
        </mxCell>
        <mxCell id="fGEN_x_BeK6-Chwx7Do9-203" value="&lt;span style=&quot;color: rgba(0, 0, 0, 0.85); font-family: Menlo, &amp;quot;Ubuntu Mono&amp;quot;, consolas, source-code-pro, monospace; font-size: 14px; text-align: start; white-space: pre; background-color: rgb(245, 245, 245);&quot;&gt;Сервер конфигурации&lt;/span&gt;&lt;div&gt;&lt;span style=&quot;color: rgba(0, 0, 0, 0.85); font-family: Menlo, &amp;quot;Ubuntu Mono&amp;quot;, consolas, source-code-pro, monospace; font-size: 14px; text-align: start; white-space: pre; background-color: rgb(245, 245, 245);&quot;&gt;(configSrv)&lt;/span&gt;&lt;/div&gt;" style="rounded=1;whiteSpace=wrap;html=1;container=0;" vertex="1" parent="1">
          <mxGeometry x="1210" y="5125" width="160" height="80" as="geometry" />
        </mxCell>
        <mxCell id="fGEN_x_BeK6-Chwx7Do9-204" value="MongoDB&lt;br&gt;Shard 1&lt;br&gt;(shard-1)" style="shape=cylinder3;whiteSpace=wrap;html=1;boundedLbl=1;backgroundOutline=1;size=15;container=0;" vertex="1" parent="1">
          <mxGeometry x="1710" y="4922" width="70" height="100" as="geometry" />
        </mxCell>
        <mxCell id="fGEN_x_BeK6-Chwx7Do9-205" value="MongoDB&lt;div&gt;Shard 2&lt;/div&gt;&lt;div&gt;(shard-2)&lt;/div&gt;" style="shape=cylinder3;whiteSpace=wrap;html=1;boundedLbl=1;backgroundOutline=1;size=15;container=0;" vertex="1" parent="1">
          <mxGeometry x="1710" y="5265" width="70" height="110" as="geometry" />
        </mxCell>
        <mxCell id="fGEN_x_BeK6-Chwx7Do9-206" value="Replica 1&lt;div&gt;(shard-1-1)&lt;/div&gt;" style="shape=cylinder3;whiteSpace=wrap;html=1;boundedLbl=1;backgroundOutline=1;size=15;container=0;" vertex="1" parent="1">
          <mxGeometry x="1900" y="4820" width="70" height="90" as="geometry" />
        </mxCell>
        <mxCell id="fGEN_x_BeK6-Chwx7Do9-207" value="Replica 2&lt;div&gt;(shard-1-2)&lt;/div&gt;" style="shape=cylinder3;whiteSpace=wrap;html=1;boundedLbl=1;backgroundOutline=1;size=15;container=0;" vertex="1" parent="1">
          <mxGeometry x="1900" y="4920" width="70" height="90" as="geometry" />
        </mxCell>
        <mxCell id="fGEN_x_BeK6-Chwx7Do9-208" value="Replica 3&lt;div&gt;(shard-1-3)&lt;/div&gt;" style="shape=cylinder3;whiteSpace=wrap;html=1;boundedLbl=1;backgroundOutline=1;size=15;container=0;" vertex="1" parent="1">
          <mxGeometry x="1900" y="5020" width="70" height="90" as="geometry" />
        </mxCell>
        <mxCell id="fGEN_x_BeK6-Chwx7Do9-209" value="Replica 1&lt;br&gt;(shard-2-1)" style="shape=cylinder3;whiteSpace=wrap;html=1;boundedLbl=1;backgroundOutline=1;size=15;container=0;" vertex="1" parent="1">
          <mxGeometry x="1900" y="5170" width="70" height="90" as="geometry" />
        </mxCell>
        <mxCell id="fGEN_x_BeK6-Chwx7Do9-210" value="Replica 2&lt;div&gt;(shard-2-2)&lt;/div&gt;" style="shape=cylinder3;whiteSpace=wrap;html=1;boundedLbl=1;backgroundOutline=1;size=15;container=0;" vertex="1" parent="1">
          <mxGeometry x="1900" y="5270" width="70" height="90" as="geometry" />
        </mxCell>
        <mxCell id="fGEN_x_BeK6-Chwx7Do9-211" value="Replica 3&lt;div&gt;(shard-2-3)&lt;/div&gt;" style="shape=cylinder3;whiteSpace=wrap;html=1;boundedLbl=1;backgroundOutline=1;size=15;container=0;" vertex="1" parent="1">
          <mxGeometry x="1900" y="5370" width="70" height="90" as="geometry" />
        </mxCell>
        <mxCell id="fGEN_x_BeK6-Chwx7Do9-212" style="edgeStyle=orthogonalEdgeStyle;rounded=0;orthogonalLoop=1;jettySize=auto;html=1;entryX=0;entryY=0.5;entryDx=0;entryDy=0;entryPerimeter=0;dashed=1;" edge="1" parent="1" source="fGEN_x_BeK6-Chwx7Do9-204" target="fGEN_x_BeK6-Chwx7Do9-206">
          <mxGeometry relative="1" as="geometry" />
        </mxCell>
        <mxCell id="fGEN_x_BeK6-Chwx7Do9-213" style="edgeStyle=orthogonalEdgeStyle;rounded=0;orthogonalLoop=1;jettySize=auto;html=1;entryX=0.044;entryY=0.589;entryDx=0;entryDy=0;entryPerimeter=0;dashed=1;" edge="1" parent="1" source="fGEN_x_BeK6-Chwx7Do9-204" target="fGEN_x_BeK6-Chwx7Do9-207">
          <mxGeometry relative="1" as="geometry" />
        </mxCell>
        <mxCell id="fGEN_x_BeK6-Chwx7Do9-214" style="edgeStyle=orthogonalEdgeStyle;rounded=0;orthogonalLoop=1;jettySize=auto;html=1;entryX=-0.004;entryY=0.593;entryDx=0;entryDy=0;entryPerimeter=0;dashed=1;" edge="1" parent="1" source="fGEN_x_BeK6-Chwx7Do9-204" target="fGEN_x_BeK6-Chwx7Do9-208">
          <mxGeometry relative="1" as="geometry" />
        </mxCell>
        <mxCell id="fGEN_x_BeK6-Chwx7Do9-215" style="edgeStyle=orthogonalEdgeStyle;rounded=0;orthogonalLoop=1;jettySize=auto;html=1;entryX=-0.013;entryY=0.584;entryDx=0;entryDy=0;entryPerimeter=0;dashed=1;" edge="1" parent="1" source="fGEN_x_BeK6-Chwx7Do9-205" target="fGEN_x_BeK6-Chwx7Do9-209">
          <mxGeometry relative="1" as="geometry" />
        </mxCell>
        <mxCell id="fGEN_x_BeK6-Chwx7Do9-216" style="edgeStyle=orthogonalEdgeStyle;rounded=0;orthogonalLoop=1;jettySize=auto;html=1;entryX=0.033;entryY=0.559;entryDx=0;entryDy=0;entryPerimeter=0;dashed=1;" edge="1" parent="1" source="fGEN_x_BeK6-Chwx7Do9-205" target="fGEN_x_BeK6-Chwx7Do9-210">
          <mxGeometry relative="1" as="geometry" />
        </mxCell>
        <mxCell id="fGEN_x_BeK6-Chwx7Do9-217" style="edgeStyle=orthogonalEdgeStyle;rounded=0;orthogonalLoop=1;jettySize=auto;html=1;entryX=-0.002;entryY=0.593;entryDx=0;entryDy=0;entryPerimeter=0;dashed=1;" edge="1" parent="1" source="fGEN_x_BeK6-Chwx7Do9-205" target="fGEN_x_BeK6-Chwx7Do9-211">
          <mxGeometry relative="1" as="geometry" />
        </mxCell>
        <mxCell id="fGEN_x_BeK6-Chwx7Do9-218" value="Redis" style="rhombus;whiteSpace=wrap;html=1;container=0;" vertex="1" parent="1">
          <mxGeometry x="1425" y="5080" width="140" height="170" as="geometry" />
        </mxCell>
        <mxCell id="fGEN_x_BeK6-Chwx7Do9-219" style="edgeStyle=orthogonalEdgeStyle;rounded=0;orthogonalLoop=1;jettySize=auto;html=1;entryX=0;entryY=0.5;entryDx=0;entryDy=0;" edge="1" parent="1" source="fGEN_x_BeK6-Chwx7Do9-221" target="fGEN_x_BeK6-Chwx7Do9-179">
          <mxGeometry relative="1" as="geometry" />
        </mxCell>
        <mxCell id="fGEN_x_BeK6-Chwx7Do9-220" style="edgeStyle=orthogonalEdgeStyle;rounded=0;orthogonalLoop=1;jettySize=auto;html=1;entryX=0;entryY=0.5;entryDx=0;entryDy=0;" edge="1" parent="1" source="fGEN_x_BeK6-Chwx7Do9-221" target="fGEN_x_BeK6-Chwx7Do9-203">
          <mxGeometry relative="1" as="geometry" />
        </mxCell>
        <mxCell id="fGEN_x_BeK6-Chwx7Do9-221" value="APISIX Gateway" style="rounded=1;whiteSpace=wrap;html=1;" vertex="1" parent="1">
          <mxGeometry x="790" y="4737.27" width="120" height="60" as="geometry" />
        </mxCell>
        <mxCell id="fGEN_x_BeK6-Chwx7Do9-222" style="edgeStyle=orthogonalEdgeStyle;rounded=0;orthogonalLoop=1;jettySize=auto;html=1;entryX=0.5;entryY=0;entryDx=0;entryDy=0;" edge="1" parent="1" source="fGEN_x_BeK6-Chwx7Do9-223" target="fGEN_x_BeK6-Chwx7Do9-224">
          <mxGeometry relative="1" as="geometry" />
        </mxCell>
        <mxCell id="fGEN_x_BeK6-Chwx7Do9-223" value="consul_kv" style="rounded=0;whiteSpace=wrap;html=1;" vertex="1" parent="1">
          <mxGeometry x="810" y="4780" width="80" height="30" as="geometry" />
        </mxCell>
        <mxCell id="fGEN_x_BeK6-Chwx7Do9-224" value="Consul" style="rounded=1;whiteSpace=wrap;html=1;" vertex="1" parent="1">
          <mxGeometry x="790" y="4860" width="120" height="60" as="geometry" />
        </mxCell>
        <mxCell id="fGEN_x_BeK6-Chwx7Do9-225" value="User" style="rounded=1;whiteSpace=wrap;html=1;" vertex="1" parent="1">
          <mxGeometry x="50" y="4738.27" width="120" height="60" as="geometry" />
        </mxCell>
        <mxCell id="fGEN_x_BeK6-Chwx7Do9-235" style="edgeStyle=orthogonalEdgeStyle;rounded=0;orthogonalLoop=1;jettySize=auto;html=1;entryX=0.002;entryY=0.537;entryDx=0;entryDy=0;entryPerimeter=0;" edge="1" parent="1" source="fGEN_x_BeK6-Chwx7Do9-226" target="fGEN_x_BeK6-Chwx7Do9-176">
          <mxGeometry relative="1" as="geometry" />
        </mxCell>
        <mxCell id="fGEN_x_BeK6-Chwx7Do9-226" value="CDN" style="rounded=1;whiteSpace=wrap;html=1;" vertex="1" parent="1">
          <mxGeometry x="380" y="4740" width="120" height="60" as="geometry" />
        </mxCell>
        <mxCell id="fGEN_x_BeK6-Chwx7Do9-231" style="edgeStyle=orthogonalEdgeStyle;rounded=0;orthogonalLoop=1;jettySize=auto;html=1;entryX=0;entryY=0.5;entryDx=0;entryDy=0;" edge="1" parent="1" source="fGEN_x_BeK6-Chwx7Do9-227" target="fGEN_x_BeK6-Chwx7Do9-226">
          <mxGeometry relative="1" as="geometry" />
        </mxCell>
        <mxCell id="fGEN_x_BeK6-Chwx7Do9-227" value="EdgeCDN" style="rounded=1;whiteSpace=wrap;html=1;" vertex="1" parent="1">
          <mxGeometry x="220" y="4740" width="120" height="60" as="geometry" />
        </mxCell>
        <mxCell id="fGEN_x_BeK6-Chwx7Do9-232" style="edgeStyle=orthogonalEdgeStyle;rounded=0;orthogonalLoop=1;jettySize=auto;html=1;entryX=0.5;entryY=0;entryDx=0;entryDy=0;" edge="1" parent="1" source="fGEN_x_BeK6-Chwx7Do9-228" target="fGEN_x_BeK6-Chwx7Do9-226">
          <mxGeometry relative="1" as="geometry" />
        </mxCell>
        <mxCell id="fGEN_x_BeK6-Chwx7Do9-228" value="EdgeCDN" style="rounded=1;whiteSpace=wrap;html=1;" vertex="1" parent="1">
          <mxGeometry x="220" y="4630" width="120" height="60" as="geometry" />
        </mxCell>
        <mxCell id="fGEN_x_BeK6-Chwx7Do9-234" style="edgeStyle=orthogonalEdgeStyle;rounded=0;orthogonalLoop=1;jettySize=auto;html=1;entryX=0.5;entryY=1;entryDx=0;entryDy=0;" edge="1" parent="1" source="fGEN_x_BeK6-Chwx7Do9-229" target="fGEN_x_BeK6-Chwx7Do9-226">
          <mxGeometry relative="1" as="geometry" />
        </mxCell>
        <mxCell id="fGEN_x_BeK6-Chwx7Do9-229" value="EdgeCDN" style="rounded=1;whiteSpace=wrap;html=1;" vertex="1" parent="1">
          <mxGeometry x="220" y="4850" width="120" height="60" as="geometry" />
        </mxCell>
        <mxCell id="fGEN_x_BeK6-Chwx7Do9-230" style="edgeStyle=orthogonalEdgeStyle;rounded=0;orthogonalLoop=1;jettySize=auto;html=1;entryX=0.008;entryY=0.472;entryDx=0;entryDy=0;entryPerimeter=0;" edge="1" parent="1" source="fGEN_x_BeK6-Chwx7Do9-225" target="fGEN_x_BeK6-Chwx7Do9-227">
          <mxGeometry relative="1" as="geometry" />
        </mxCell>
      </root>
    </mxGraphModel>
  </diagram>
</mxfile>
